<svg xmlns="http://www.w3.org/2000/svg" viewBox="0 0 24 24" shape-rendering="crispEdges">
  <rect x="11" y="0" width="2" height="1" fill="#241708"/>
  <rect x="10" y="1" width="1" height="1" fill="#241708"/>
  <rect x="11" y="1" width="2" height="1" fill="#ee8c3c"/>
  <rect x="13" y="1" width="1" height="1" fill="#241708"/>
  <rect x="9" y="2" width="1" height="1" fill="#241708"/>
  <rect x="10" y="2" width="3" height="1" fill="#ee8c3c"/>
  <rect x="13" y="2" width="1" height="1" fill="#c75b1e"/>
  <rect x="14" y="2" width="1" height="1" fill="#241708"/>
  <rect x="8" y="3" width="1" height="1" fill="#241708"/>
  <rect x="9" y="3" width="2" height="1" fill="#ee8c3c"/>
  <rect x="11" y="3" width="2" height="1" fill="#f4e3b1"/>
  <rect x="13" y="3" width="1" height="1" fill="#c75b1e"/>
  <rect x="14" y="3" width="1" height="1" fill="#94400f"/>
  <rect x="15" y="3" width="1" height="1" fill="#241708"/>
  <rect x="8" y="4" width="1" height="1" fill="#241708"/>
  <rect x="9" y="4" width="2" height="1" fill="#ee8c3c"/>
  <rect x="11" y="4" width="2" height="1" fill="#f4e3b1"/>
  <rect x="13" y="4" width="1" height="1" fill="#c75b1e"/>
  <rect x="14" y="4" width="1" height="1" fill="#94400f"/>
  <rect x="15" y="4" width="1" height="1" fill="#241708"/>
  <rect x="8" y="5" width="1" height="1" fill="#241708"/>
  <rect x="9" y="5" width="2" height="1" fill="#ee8c3c"/>
  <rect x="11" y="5" width="2" height="1" fill="#f4e3b1"/>
  <rect x="13" y="5" width="1" height="1" fill="#c75b1e"/>
  <rect x="14" y="5" width="1" height="1" fill="#94400f"/>
  <rect x="15" y="5" width="1" height="1" fill="#241708"/>
  <rect x="8" y="6" width="1" height="1" fill="#241708"/>
  <rect x="9" y="6" width="2" height="1" fill="#ee8c3c"/>
  <rect x="11" y="6" width="2" height="1" fill="#f4e3b1"/>
  <rect x="13" y="6" width="1" height="1" fill="#c75b1e"/>
  <rect x="14" y="6" width="1" height="1" fill="#94400f"/>
  <rect x="15" y="6" width="1" height="1" fill="#241708"/>
  <rect x="8" y="7" width="1" height="1" fill="#241708"/>
  <rect x="9" y="7" width="2" height="1" fill="#ee8c3c"/>
  <rect x="11" y="7" width="2" height="1" fill="#f4e3b1"/>
  <rect x="13" y="7" width="1" height="1" fill="#c75b1e"/>
  <rect x="14" y="7" width="1" height="1" fill="#94400f"/>
  <rect x="15" y="7" width="1" height="1" fill="#241708"/>
  <rect x="8" y="8" width="1" height="1" fill="#241708"/>
  <rect x="9" y="8" width="2" height="1" fill="#ee8c3c"/>
  <rect x="11" y="8" width="2" height="1" fill="#f4e3b1"/>
  <rect x="13" y="8" width="1" height="1" fill="#c75b1e"/>
  <rect x="14" y="8" width="1" height="1" fill="#94400f"/>
  <rect x="15" y="8" width="1" height="1" fill="#241708"/>
  <rect x="8" y="9" width="1" height="1" fill="#241708"/>
  <rect x="9" y="9" width="2" height="1" fill="#ee8c3c"/>
  <rect x="11" y="9" width="2" height="1" fill="#f4e3b1"/>
  <rect x="13" y="9" width="1" height="1" fill="#c75b1e"/>
  <rect x="14" y="9" width="1" height="1" fill="#94400f"/>
  <rect x="15" y="9" width="1" height="1" fill="#241708"/>
  <rect x="8" y="10" width="1" height="1" fill="#241708"/>
  <rect x="9" y="10" width="2" height="1" fill="#ee8c3c"/>
  <rect x="11" y="10" width="2" height="1" fill="#f4e3b1"/>
  <rect x="13" y="10" width="1" height="1" fill="#c75b1e"/>
  <rect x="14" y="10" width="1" height="1" fill="#94400f"/>
  <rect x="15" y="10" width="1" height="1" fill="#241708"/>
  <rect x="8" y="11" width="1" height="1" fill="#241708"/>
  <rect x="9" y="11" width="2" height="1" fill="#ee8c3c"/>
  <rect x="11" y="11" width="2" height="1" fill="#f4e3b1"/>
  <rect x="13" y="11" width="1" height="1" fill="#c75b1e"/>
  <rect x="14" y="11" width="1" height="1" fill="#94400f"/>
  <rect x="15" y="11" width="1" height="1" fill="#241708"/>
  <rect x="8" y="12" width="1" height="1" fill="#241708"/>
  <rect x="9" y="12" width="2" height="1" fill="#ee8c3c"/>
  <rect x="11" y="12" width="2" height="1" fill="#f4e3b1"/>
  <rect x="13" y="12" width="1" height="1" fill="#c75b1e"/>
  <rect x="14" y="12" width="1" height="1" fill="#94400f"/>
  <rect x="15" y="12" width="1" height="1" fill="#241708"/>
  <rect x="8" y="13" width="1" height="1" fill="#241708"/>
  <rect x="9" y="13" width="2" height="1" fill="#ee8c3c"/>
  <rect x="11" y="13" width="2" height="1" fill="#f4e3b1"/>
  <rect x="13" y="13" width="1" height="1" fill="#c75b1e"/>
  <rect x="14" y="13" width="1" height="1" fill="#94400f"/>
  <rect x="15" y="13" width="1" height="1" fill="#241708"/>
  <rect x="8" y="14" width="1" height="1" fill="#241708"/>
  <rect x="9" y="14" width="2" height="1" fill="#ee8c3c"/>
  <rect x="11" y="14" width="2" height="1" fill="#f4e3b1"/>
  <rect x="13" y="14" width="1" height="1" fill="#c75b1e"/>
  <rect x="14" y="14" width="1" height="1" fill="#94400f"/>
  <rect x="15" y="14" width="1" height="1" fill="#241708"/>
  <rect x="8" y="15" width="1" height="1" fill="#241708"/>
  <rect x="9" y="15" width="2" height="1" fill="#ee8c3c"/>
  <rect x="11" y="15" width="2" height="1" fill="#f4e3b1"/>
  <rect x="13" y="15" width="1" height="1" fill="#c75b1e"/>
  <rect x="14" y="15" width="1" height="1" fill="#94400f"/>
  <rect x="15" y="15" width="1" height="1" fill="#241708"/>
  <rect x="6" y="16" width="4" height="1" fill="#241708"/>
  <rect x="10" y="16" width="1" height="1" fill="#ee8c3c"/>
  <rect x="11" y="16" width="3" height="1" fill="#c75b1e"/>
  <rect x="14" y="16" width="4" height="1" fill="#241708"/>
  <rect x="5" y="17" width="1" height="1" fill="#241708"/>
  <rect x="6" y="17" width="3" height="1" fill="#d8b878"/>
  <rect x="9" y="17" width="2" height="1" fill="#241708"/>
  <rect x="11" y="17" width="2" height="1" fill="#94400f"/>
  <rect x="13" y="17" width="2" height="1" fill="#241708"/>
  <rect x="15" y="17" width="3" height="1" fill="#d8b878"/>
  <rect x="18" y="17" width="1" height="1" fill="#241708"/>
  <rect x="4" y="18" width="1" height="1" fill="#241708"/>
  <rect x="5" y="18" width="14" height="1" fill="#d8b878"/>
  <rect x="19" y="18" width="1" height="1" fill="#241708"/>
  <rect x="3" y="19" width="1" height="1" fill="#241708"/>
  <rect x="4" y="19" width="2" height="1" fill="#d8b878"/>
  <rect x="6" y="19" width="1" height="1" fill="#a8854a"/>
  <rect x="7" y="19" width="10" height="1" fill="#d8b878"/>
  <rect x="17" y="19" width="1" height="1" fill="#a8854a"/>
  <rect x="18" y="19" width="2" height="1" fill="#d8b878"/>
  <rect x="20" y="19" width="1" height="1" fill="#241708"/>
  <rect x="4" y="20" width="1" height="1" fill="#241708"/>
  <rect x="5" y="20" width="14" height="1" fill="#a8854a"/>
  <rect x="19" y="20" width="1" height="1" fill="#241708"/>
  <rect x="5" y="21" width="14" height="1" fill="#241708"/>
</svg>
