<svg xmlns="http://www.w3.org/2000/svg" viewBox="0 0 24 24" shape-rendering="crispEdges">
  <rect x="4" y="2" width="1" height="1" fill="#241708"/>
  <rect x="3" y="3" width="1" height="1" fill="#241708"/>
  <rect x="4" y="3" width="1" height="1" fill="#f8d000"/>
  <rect x="5" y="3" width="1" height="1" fill="#241708"/>
  <rect x="3" y="4" width="1" height="1" fill="#241708"/>
  <rect x="4" y="4" width="2" height="1" fill="#f8d000"/>
  <rect x="6" y="4" width="13" height="1" fill="#241708"/>
  <rect x="2" y="5" width="1" height="1" fill="#241708"/>
  <rect x="3" y="5" width="15" height="1" fill="#f8d000"/>
  <rect x="18" y="5" width="1" height="1" fill="#ffec80"/>
  <rect x="19" y="5" width="1" height="1" fill="#241708"/>
  <rect x="2" y="6" width="1" height="1" fill="#241708"/>
  <rect x="3" y="6" width="16" height="1" fill="#f8d000"/>
  <rect x="19" y="6" width="1" height="1" fill="#241708"/>
  <rect x="3" y="7" width="1" height="1" fill="#241708"/>
  <rect x="4" y="7" width="2" height="1" fill="#f8d000"/>
  <rect x="6" y="7" width="13" height="1" fill="#241708"/>
  <rect x="3" y="8" width="1" height="1" fill="#241708"/>
  <rect x="4" y="8" width="1" height="1" fill="#f8d000"/>
  <rect x="5" y="8" width="1" height="1" fill="#241708"/>
  <rect x="4" y="9" width="1" height="1" fill="#241708"/>
  <rect x="7" y="13" width="10" height="1" fill="#241708"/>
  <rect x="5" y="14" width="2" height="1" fill="#241708"/>
  <rect x="7" y="14" width="4" height="1" fill="#ee8c3c"/>
  <rect x="11" y="14" width="2" height="1" fill="#f4e3b1"/>
  <rect x="13" y="14" width="4" height="1" fill="#ee8c3c"/>
  <rect x="17" y="14" width="3" height="1" fill="#241708"/>
  <rect x="4" y="15" width="1" height="1" fill="#241708"/>
  <rect x="5" y="15" width="6" height="1" fill="#c75b1e"/>
  <rect x="11" y="15" width="2" height="1" fill="#f4e3b1"/>
  <rect x="13" y="15" width="6" height="1" fill="#c75b1e"/>
  <rect x="19" y="15" width="1" height="1" fill="#ee8c3c"/>
  <rect x="20" y="15" width="1" height="1" fill="#241708"/>
  <rect x="5" y="16" width="1" height="1" fill="#241708"/>
  <rect x="6" y="16" width="12" height="1" fill="#94400f"/>
  <rect x="18" y="16" width="2" height="1" fill="#241708"/>
  <rect x="6" y="17" width="1" height="1" fill="#241708"/>
  <rect x="7" y="17" width="2" height="1" fill="#94400f"/>
  <rect x="9" y="17" width="9" height="1" fill="#241708"/>
  <rect x="2" y="18" width="20" height="1" fill="#241708"/>
  <rect x="1" y="19" width="1" height="1" fill="#241708"/>
  <rect x="2" y="19" width="20" height="1" fill="#2e86a8"/>
  <rect x="22" y="19" width="1" height="1" fill="#241708"/>
  <rect x="2" y="20" width="20" height="1" fill="#241708"/>
  <rect x="2" y="21" width="1" height="1" fill="#241708"/>
  <rect x="3" y="21" width="18" height="1" fill="#1a5068"/>
  <rect x="21" y="21" width="1" height="1" fill="#241708"/>
  <rect x="3" y="22" width="18" height="1" fill="#241708"/>
</svg>
