<svg xmlns="http://www.w3.org/2000/svg" viewBox="0 0 24 24" shape-rendering="crispEdges">
  <rect x="6" y="9" width="10" height="1" fill="#241708"/>
  <rect x="4" y="10" width="2" height="1" fill="#241708"/>
  <rect x="6" y="10" width="4" height="1" fill="#ee8c3c"/>
  <rect x="10" y="10" width="2" height="1" fill="#f4e3b1"/>
  <rect x="12" y="10" width="4" height="1" fill="#ee8c3c"/>
  <rect x="16" y="10" width="3" height="1" fill="#241708"/>
  <rect x="3" y="11" width="1" height="1" fill="#241708"/>
  <rect x="4" y="11" width="6" height="1" fill="#c75b1e"/>
  <rect x="10" y="11" width="2" height="1" fill="#f4e3b1"/>
  <rect x="12" y="11" width="6" height="1" fill="#c75b1e"/>
  <rect x="18" y="11" width="1" height="1" fill="#ee8c3c"/>
  <rect x="19" y="11" width="1" height="1" fill="#241708"/>
  <rect x="4" y="12" width="1" height="1" fill="#241708"/>
  <rect x="5" y="12" width="12" height="1" fill="#94400f"/>
  <rect x="17" y="12" width="2" height="1" fill="#241708"/>
  <rect x="5" y="13" width="1" height="1" fill="#241708"/>
  <rect x="6" y="13" width="2" height="1" fill="#94400f"/>
  <rect x="8" y="13" width="9" height="1" fill="#241708"/>
  <rect x="2" y="14" width="6" height="1" fill="#241708"/>
  <rect x="9" y="14" width="5" height="1" fill="#241708"/>
  <rect x="16" y="14" width="5" height="1" fill="#241708"/>
  <rect x="1" y="15" width="1" height="1" fill="#241708"/>
  <rect x="2" y="15" width="5" height="1" fill="#6cc4e0"/>
  <rect x="7" y="15" width="2" height="1" fill="#241708"/>
  <rect x="9" y="15" width="5" height="1" fill="#6cc4e0"/>
  <rect x="14" y="15" width="2" height="1" fill="#241708"/>
  <rect x="16" y="15" width="5" height="1" fill="#6cc4e0"/>
  <rect x="21" y="15" width="1" height="1" fill="#241708"/>
  <rect x="2" y="16" width="20" height="1" fill="#241708"/>
  <rect x="3" y="17" width="1" height="1" fill="#241708"/>
  <rect x="4" y="17" width="5" height="1" fill="#2e86a8"/>
  <rect x="9" y="17" width="2" height="1" fill="#241708"/>
  <rect x="11" y="17" width="5" height="1" fill="#2e86a8"/>
  <rect x="16" y="17" width="2" height="1" fill="#241708"/>
  <rect x="18" y="17" width="4" height="1" fill="#2e86a8"/>
  <rect x="22" y="17" width="1" height="1" fill="#241708"/>
  <rect x="2" y="18" width="20" height="1" fill="#241708"/>
  <rect x="1" y="19" width="1" height="1" fill="#241708"/>
  <rect x="2" y="19" width="4" height="1" fill="#1a5068"/>
  <rect x="6" y="19" width="1" height="1" fill="#241708"/>
  <rect x="8" y="19" width="1" height="1" fill="#241708"/>
  <rect x="9" y="19" width="4" height="1" fill="#1a5068"/>
  <rect x="13" y="19" width="1" height="1" fill="#241708"/>
  <rect x="15" y="19" width="1" height="1" fill="#241708"/>
  <rect x="16" y="19" width="4" height="1" fill="#1a5068"/>
  <rect x="20" y="19" width="1" height="1" fill="#241708"/>
  <rect x="2" y="20" width="4" height="1" fill="#241708"/>
  <rect x="9" y="20" width="4" height="1" fill="#241708"/>
  <rect x="16" y="20" width="4" height="1" fill="#241708"/>
</svg>
