<svg xmlns="http://www.w3.org/2000/svg" viewBox="0 0 24 24" shape-rendering="crispEdges">
  <rect x="18" y="2" width="1" height="1" fill="#241708"/>
  <rect x="17" y="3" width="1" height="1" fill="#241708"/>
  <rect x="18" y="3" width="1" height="1" fill="#ee8c3c"/>
  <rect x="19" y="3" width="1" height="1" fill="#241708"/>
  <rect x="16" y="4" width="1" height="1" fill="#241708"/>
  <rect x="17" y="4" width="1" height="1" fill="#ee8c3c"/>
  <rect x="18" y="4" width="1" height="1" fill="#c75b1e"/>
  <rect x="19" y="4" width="1" height="1" fill="#94400f"/>
  <rect x="20" y="4" width="1" height="1" fill="#241708"/>
  <rect x="15" y="5" width="1" height="1" fill="#241708"/>
  <rect x="16" y="5" width="1" height="1" fill="#ee8c3c"/>
  <rect x="17" y="5" width="1" height="1" fill="#c75b1e"/>
  <rect x="18" y="5" width="1" height="1" fill="#94400f"/>
  <rect x="19" y="5" width="1" height="1" fill="#241708"/>
  <rect x="14" y="6" width="1" height="1" fill="#241708"/>
  <rect x="15" y="6" width="1" height="1" fill="#ee8c3c"/>
  <rect x="16" y="6" width="1" height="1" fill="#c75b1e"/>
  <rect x="17" y="6" width="1" height="1" fill="#94400f"/>
  <rect x="18" y="6" width="1" height="1" fill="#241708"/>
  <rect x="13" y="7" width="1" height="1" fill="#241708"/>
  <rect x="14" y="7" width="1" height="1" fill="#ee8c3c"/>
  <rect x="15" y="7" width="1" height="1" fill="#c75b1e"/>
  <rect x="16" y="7" width="1" height="1" fill="#94400f"/>
  <rect x="17" y="7" width="1" height="1" fill="#241708"/>
  <rect x="12" y="8" width="1" height="1" fill="#241708"/>
  <rect x="13" y="8" width="1" height="1" fill="#ee8c3c"/>
  <rect x="14" y="8" width="2" height="1" fill="#f4e3b1"/>
  <rect x="16" y="8" width="1" height="1" fill="#241708"/>
  <rect x="11" y="9" width="1" height="1" fill="#241708"/>
  <rect x="12" y="9" width="1" height="1" fill="#ee8c3c"/>
  <rect x="13" y="9" width="1" height="1" fill="#c75b1e"/>
  <rect x="14" y="9" width="1" height="1" fill="#94400f"/>
  <rect x="15" y="9" width="1" height="1" fill="#241708"/>
  <rect x="10" y="10" width="1" height="1" fill="#241708"/>
  <rect x="11" y="10" width="1" height="1" fill="#ee8c3c"/>
  <rect x="12" y="10" width="1" height="1" fill="#c75b1e"/>
  <rect x="13" y="10" width="1" height="1" fill="#94400f"/>
  <rect x="14" y="10" width="1" height="1" fill="#241708"/>
  <rect x="6" y="11" width="1" height="1" fill="#241708"/>
  <rect x="9" y="11" width="1" height="1" fill="#241708"/>
  <rect x="10" y="11" width="1" height="1" fill="#ee8c3c"/>
  <rect x="11" y="11" width="1" height="1" fill="#c75b1e"/>
  <rect x="12" y="11" width="1" height="1" fill="#94400f"/>
  <rect x="13" y="11" width="1" height="1" fill="#241708"/>
  <rect x="5" y="12" width="1" height="1" fill="#241708"/>
  <rect x="6" y="12" width="1" height="1" fill="#e8f8ff"/>
  <rect x="7" y="12" width="1" height="1" fill="#241708"/>
  <rect x="9" y="12" width="1" height="1" fill="#241708"/>
  <rect x="10" y="12" width="1" height="1" fill="#c75b1e"/>
  <rect x="11" y="12" width="1" height="1" fill="#94400f"/>
  <rect x="12" y="12" width="1" height="1" fill="#241708"/>
  <rect x="4" y="13" width="1" height="1" fill="#241708"/>
  <rect x="5" y="13" width="1" height="1" fill="#e8f8ff"/>
  <rect x="6" y="13" width="1" height="1" fill="#241708"/>
  <rect x="8" y="13" width="1" height="1" fill="#241708"/>
  <rect x="10" y="13" width="2" height="1" fill="#241708"/>
  <rect x="1" y="14" width="2" height="1" fill="#241708"/>
  <rect x="5" y="14" width="1" height="1" fill="#241708"/>
  <rect x="7" y="14" width="1" height="1" fill="#241708"/>
  <rect x="8" y="14" width="1" height="1" fill="#e8f8ff"/>
  <rect x="9" y="14" width="1" height="1" fill="#241708"/>
  <rect x="0" y="15" width="1" height="1" fill="#241708"/>
  <rect x="1" y="15" width="2" height="1" fill="#e8f8ff"/>
  <rect x="3" y="15" width="2" height="1" fill="#241708"/>
  <rect x="6" y="15" width="1" height="1" fill="#241708"/>
  <rect x="7" y="15" width="1" height="1" fill="#e8f8ff"/>
  <rect x="8" y="15" width="1" height="1" fill="#241708"/>
  <rect x="0" y="16" width="1" height="1" fill="#241708"/>
  <rect x="1" y="16" width="4" height="1" fill="#6cc4e0"/>
  <rect x="5" y="16" width="3" height="1" fill="#241708"/>
  <rect x="0" y="17" width="1" height="1" fill="#241708"/>
  <rect x="1" y="17" width="6" height="1" fill="#6cc4e0"/>
  <rect x="7" y="17" width="2" height="1" fill="#241708"/>
  <rect x="0" y="18" width="1" height="1" fill="#241708"/>
  <rect x="1" y="18" width="8" height="1" fill="#2e86a8"/>
  <rect x="9" y="18" width="2" height="1" fill="#241708"/>
  <rect x="0" y="19" width="1" height="1" fill="#241708"/>
  <rect x="1" y="19" width="10" height="1" fill="#2e86a8"/>
  <rect x="11" y="19" width="2" height="1" fill="#241708"/>
  <rect x="0" y="20" width="1" height="1" fill="#241708"/>
  <rect x="1" y="20" width="12" height="1" fill="#1a5068"/>
  <rect x="13" y="20" width="1" height="1" fill="#241708"/>
  <rect x="1" y="21" width="12" height="1" fill="#241708"/>
</svg>
