<svg xmlns="http://www.w3.org/2000/svg" viewBox="0 0 24 24" shape-rendering="crispEdges">
  <rect x="6" y="9" width="10" height="1" fill="#241708"/>
  <rect x="4" y="10" width="2" height="1" fill="#241708"/>
  <rect x="6" y="10" width="4" height="1" fill="#ee8c3c"/>
  <rect x="10" y="10" width="2" height="1" fill="#f4e3b1"/>
  <rect x="12" y="10" width="4" height="1" fill="#ee8c3c"/>
  <rect x="16" y="10" width="3" height="1" fill="#241708"/>
  <rect x="3" y="11" width="1" height="1" fill="#241708"/>
  <rect x="4" y="11" width="6" height="1" fill="#c75b1e"/>
  <rect x="10" y="11" width="2" height="1" fill="#f4e3b1"/>
  <rect x="12" y="11" width="6" height="1" fill="#c75b1e"/>
  <rect x="18" y="11" width="1" height="1" fill="#ee8c3c"/>
  <rect x="19" y="11" width="1" height="1" fill="#241708"/>
  <rect x="2" y="12" width="1" height="1" fill="#241708"/>
  <rect x="4" y="12" width="1" height="1" fill="#241708"/>
  <rect x="5" y="12" width="12" height="1" fill="#94400f"/>
  <rect x="17" y="12" width="2" height="1" fill="#241708"/>
  <rect x="21" y="12" width="1" height="1" fill="#241708"/>
  <rect x="1" y="13" width="1" height="1" fill="#241708"/>
  <rect x="2" y="13" width="1" height="1" fill="#ffec80"/>
  <rect x="3" y="13" width="1" height="1" fill="#241708"/>
  <rect x="5" y="13" width="1" height="1" fill="#241708"/>
  <rect x="6" y="13" width="2" height="1" fill="#94400f"/>
  <rect x="8" y="13" width="9" height="1" fill="#241708"/>
  <rect x="20" y="13" width="1" height="1" fill="#241708"/>
  <rect x="21" y="13" width="1" height="1" fill="#ffec80"/>
  <rect x="22" y="13" width="1" height="1" fill="#241708"/>
  <rect x="0" y="14" width="1" height="1" fill="#241708"/>
  <rect x="1" y="14" width="1" height="1" fill="#f8d000"/>
  <rect x="2" y="14" width="20" height="1" fill="#241708"/>
  <rect x="22" y="14" width="1" height="1" fill="#f8d000"/>
  <rect x="23" y="14" width="1" height="1" fill="#241708"/>
  <rect x="1" y="15" width="1" height="1" fill="#241708"/>
  <rect x="2" y="15" width="20" height="1" fill="#b8b8b8"/>
  <rect x="22" y="15" width="1" height="1" fill="#241708"/>
  <rect x="1" y="16" width="1" height="1" fill="#241708"/>
  <rect x="2" y="16" width="20" height="1" fill="#828282"/>
  <rect x="22" y="16" width="1" height="1" fill="#241708"/>
  <rect x="1" y="17" width="1" height="1" fill="#241708"/>
  <rect x="2" y="17" width="20" height="1" fill="#4a4a4a"/>
  <rect x="22" y="17" width="1" height="1" fill="#241708"/>
  <rect x="2" y="18" width="2" height="1" fill="#241708"/>
  <rect x="4" y="18" width="2" height="1" fill="#4a4a4a"/>
  <rect x="6" y="18" width="12" height="1" fill="#241708"/>
  <rect x="18" y="18" width="2" height="1" fill="#4a4a4a"/>
  <rect x="20" y="18" width="2" height="1" fill="#241708"/>
  <rect x="3" y="19" width="1" height="1" fill="#241708"/>
  <rect x="4" y="19" width="2" height="1" fill="#4a4a4a"/>
  <rect x="6" y="19" width="1" height="1" fill="#241708"/>
  <rect x="17" y="19" width="1" height="1" fill="#241708"/>
  <rect x="18" y="19" width="2" height="1" fill="#4a4a4a"/>
  <rect x="20" y="19" width="1" height="1" fill="#241708"/>
  <rect x="3" y="20" width="1" height="1" fill="#241708"/>
  <rect x="4" y="20" width="2" height="1" fill="#4a4a4a"/>
  <rect x="6" y="20" width="1" height="1" fill="#241708"/>
  <rect x="17" y="20" width="1" height="1" fill="#241708"/>
  <rect x="18" y="20" width="2" height="1" fill="#4a4a4a"/>
  <rect x="20" y="20" width="1" height="1" fill="#241708"/>
  <rect x="4" y="21" width="2" height="1" fill="#241708"/>
  <rect x="18" y="21" width="2" height="1" fill="#241708"/>
</svg>
