<svg xmlns="http://www.w3.org/2000/svg" viewBox="0 0 32 32" shape-rendering="crispEdges">
  <rect x="2" y="24" width="28" height="4" fill="#1a5068"/>
  <rect x="4" y="18" width="3" height="2" fill="#4aa8c8"/>
  <rect x="9" y="18" width="3" height="2" fill="#4aa8c8"/>
  <rect x="14" y="18" width="3" height="2" fill="#4aa8c8"/>
  <rect x="19" y="18" width="3" height="2" fill="#4aa8c8"/>
  <rect x="24" y="18" width="3" height="2" fill="#4aa8c8"/>
  <rect x="6" y="20" width="3" height="2" fill="#68c0e0"/>
  <rect x="11" y="20" width="3" height="2" fill="#68c0e0"/>
  <rect x="16" y="20" width="3" height="2" fill="#68c0e0"/>
  <rect x="21" y="20" width="3" height="2" fill="#68c0e0"/>
  <rect x="5" y="22" width="3" height="2" fill="#3a90b0"/>
  <rect x="10" y="22" width="3" height="2" fill="#3a90b0"/>
  <rect x="15" y="22" width="3" height="2" fill="#3a90b0"/>
  <rect x="20" y="22" width="3" height="2" fill="#3a90b0"/>
  <rect x="25" y="22" width="3" height="2" fill="#3a90b0"/>
</svg>
